<?xml version="1.0" standalone="no"?><!DOCTYPE svg PUBLIC "-//W3C//DTD SVG 1.1//EN" "http://www.w3.org/Graphics/SVG/1.1/DTD/svg11.dtd"><svg t="1655707530853" class="icon" viewBox="0 0 1616 1024" version="1.1" xmlns="http://www.w3.org/2000/svg" p-id="5928" xmlns:xlink="http://www.w3.org/1999/xlink" width="101" height="64"><defs><style type="text/css">@font-face { font-family: feedback-iconfont; src: url("//at.alicdn.com/t/font_1031158_u69w8yhxdu.woff2?t=1630033759944") format("woff2"), url("//at.alicdn.com/t/font_1031158_u69w8yhxdu.woff?t=1630033759944") format("woff"), url("//at.alicdn.com/t/font_1031158_u69w8yhxdu.ttf?t=1630033759944") format("truetype"); }
</style></defs><path d="M408.378825 605.542966c190.292913 0 259.080864 61.97762 271.152087 99.056091l-0.828771-0.72067 3.279049 12.863959a148.710254 148.710254 0 0 1-29.403336 110.550778c-43.852769 56.140193-135.954395 90.480118-266.503765 99.380393-48.825392-0.612569-180.347667-16.971778-246.108805-86.912802a168.564713 168.564713 0 0 1-42.555563-126.405518c15.96284-39.889084 97.866986-107.812232 310.969104-107.812231m0-97.29045C32.261153 508.252516 0.731841 697.42839 0.731841 697.42839c-19.998592 324.373566 376.441973 326.57161 388.080794 326.57161h0.216201c453.62573-29.295235 388.296995-326.57161 388.296995-326.57161s-15.386304-189.175874-368.983039-189.175874z" fill="#ED6C60" p-id="5929"></path><path d="M1208.466657 605.542966c213.102118 0 294.97023 67.923147 310.969104 107.812231a168.564713 168.564713 0 0 1-42.591597 126.405518c-65.725104 69.941023-197.319445 86.336266-246.108804 86.912802-130.513337-8.900274-222.650996-43.2402-266.467732-99.380393a149.070589 149.070589 0 0 1-29.763671-108.965304l2.234077 0.288268-0.252234-11.242452c9.47681-36.646069 76.823422-101.830671 271.980857-101.83067m0-97.29045c-353.596734 0-368.983039 189.175874-368.983039 189.175874s-65.292702 297.276374 388.296995 326.57161h0.252234c11.602787 0 408.043353-2.16201 388.080794-326.57161 0 0-31.565346-189.175874-407.646984-189.175874z" fill="#ED6C60" p-id="5930"></path><path d="M683.134262 598.372299h227.479485v103.596312h-227.479485z" fill="#ED6C60" p-id="5931"></path><path d="M88.581514 528.539376a379.757055 379.757055 0 0 1 133.612217-49.546062L429.386356 108.136533s9.008375-19.530157 25.511718 0a337.129425 337.129425 0 0 0 27.025124 46.555282 52.212541 52.212541 0 0 0 64.572032 1.477374 54.662819 54.662819 0 0 0 10.521782-56.716729l-36.0335-64.8603A115.235133 115.235133 0 0 0 438.394731 0.036033a137.179534 137.179534 0 0 0-93.074531 57.041031zM1528.444136 528.539376a379.757055 379.757055 0 0 0-133.648251-49.546062L1187.60326 108.136533s-9.008375-19.530157-25.511718 0a337.129425 337.129425 0 0 1-27.025124 46.555282 52.212541 52.212541 0 0 1-64.572032 1.477374 54.662819 54.662819 0 0 1-10.485749-56.716729l36.0335-64.8603A115.235133 115.235133 0 0 1 1178.594885 0.036033a137.179534 137.179534 0 0 1 93.110564 57.041031z" fill="#3F4562" p-id="5932"></path></svg>