<?xml version="1.0" standalone="no"?><!DOCTYPE svg PUBLIC "-//W3C//DTD SVG 1.1//EN" "http://www.w3.org/Graphics/SVG/1.1/DTD/svg11.dtd"><svg t="1655707309116" class="icon" viewBox="0 0 1024 1024" version="1.1" xmlns="http://www.w3.org/2000/svg" p-id="2464" xmlns:xlink="http://www.w3.org/1999/xlink" width="64" height="64"><defs><style type="text/css">@font-face { font-family: feedback-iconfont; src: url("//at.alicdn.com/t/font_1031158_u69w8yhxdu.woff2?t=1630033759944") format("woff2"), url("//at.alicdn.com/t/font_1031158_u69w8yhxdu.woff?t=1630033759944") format("woff"), url("//at.alicdn.com/t/font_1031158_u69w8yhxdu.ttf?t=1630033759944") format("truetype"); }
</style></defs><path d="M523 148.6m-55.1 0a55.1 55.1 0 1 0 110.2 0 55.1 55.1 0 1 0-110.2 0Z" fill="#F2AF55" p-id="2465"></path><path d="M578 218.5m-55.1 0a55.1 55.1 0 1 0 110.2 0 55.1 55.1 0 1 0-110.2 0Z" fill="#DD8C3A" p-id="2466"></path><path d="M421.7 163.4m-55.1 0a55.1 55.1 0 1 0 110.2 0 55.1 55.1 0 1 0-110.2 0Z" fill="#F2AF55" p-id="2467"></path><path d="M487.1 203.6m-55.1 0a55.1 55.1 0 1 0 110.2 0 55.1 55.1 0 1 0-110.2 0Z" fill="#E5A04C" p-id="2468"></path><path d="M630.3 218.5m-55.1 0a55.1 55.1 0 1 0 110.2 0 55.1 55.1 0 1 0-110.2 0Z" fill="#DD8C3A" p-id="2469"></path><path d="M692.1 304.3m-55.1 0a55.1 55.1 0 1 0 110.2 0 55.1 55.1 0 1 0-110.2 0Z" fill="#DD8C3A" p-id="2470"></path><path d="M652 273.6m-55.1 0a55.1 55.1 0 1 0 110.2 0 55.1 55.1 0 1 0-110.2 0Z" fill="#DD8C3A" p-id="2471"></path><path d="M747.1 310.7m-55.1 0a55.1 55.1 0 1 0 110.2 0 55.1 55.1 0 1 0-110.2 0Z" fill="#DD8C3A" p-id="2472"></path><path d="M695.1 203.6m-55.1 0a55.1 55.1 0 1 0 110.2 0 55.1 55.1 0 1 0-110.2 0Z" fill="#F2AF55" p-id="2473"></path><path d="M738.2 258.7m-55.1 0a55.1 55.1 0 1 0 110.2 0 55.1 55.1 0 1 0-110.2 0Z" fill="#E5A04C" p-id="2474"></path><path d="M597 163.4m-55.1 0a55.1 55.1 0 1 0 110.2 0 55.1 55.1 0 1 0-110.2 0Z" fill="#F2AF55" p-id="2475"></path><path d="M643.2 258.7m-35.5 0a35.5 35.5 0 1 0 71 0 35.5 35.5 0 1 0-71 0Z" fill="#E5A04C" p-id="2476"></path><path d="M544 299.6m-55.1 0a55.1 55.1 0 1 0 110.2 0 55.1 55.1 0 1 0-110.2 0Z" fill="#DD8C3A" p-id="2477"></path><path d="M338.8 258.7m-55.1 0a55.1 55.1 0 1 0 110.2 0 55.1 55.1 0 1 0-110.2 0Z" fill="#DD8C3A" p-id="2478"></path><path d="M450.1 299.6m-55.1 0a55.1 55.1 0 1 0 110.2 0 55.1 55.1 0 1 0-110.2 0Z" fill="#DD8C3A" p-id="2479"></path><path d="M503.4 273.6m-55.1 0a55.1 55.1 0 1 0 110.2 0 55.1 55.1 0 1 0-110.2 0Z" fill="#E5A04C" p-id="2480"></path><path d="M586 273.6m-55.1 0a55.1 55.1 0 1 0 110.2 0 55.1 55.1 0 1 0-110.2 0Z" fill="#F2AF55" p-id="2481"></path><path d="M283.7 277.2m-55.1 0a55.1 55.1 0 1 0 110.2 0 55.1 55.1 0 1 0-110.2 0Z" fill="#E5A04C" p-id="2482"></path><path d="M358.3 203.6m-55.1 0a55.1 55.1 0 1 0 110.2 0 55.1 55.1 0 1 0-110.2 0Z" fill="#E5A04C" p-id="2483"></path><path d="M413.4 258.7m-55.1 0a55.1 55.1 0 1 0 110.2 0 55.1 55.1 0 1 0-110.2 0Z" fill="#F2AF55" p-id="2484"></path><path d="M402.2 312.7m-55.1 0a55.1 55.1 0 1 0 110.2 0 55.1 55.1 0 1 0-110.2 0Z" fill="#E5A04C" p-id="2485"></path><path d="M297.5 208.5m-55.1 0a55.1 55.1 0 1 0 110.2 0 55.1 55.1 0 1 0-110.2 0Z" fill="#F2AF55" p-id="2486"></path><path d="M667.3 930.5H356.9c-22.8 0-42.1-15.8-45.2-37.1l-80.4-543c-2.9-19.4 13.1-36.7 33.9-36.7H759c20.8 0 36.8 17.3 33.9 36.7l-80.4 543c-3.1 21.3-22.4 37.1-45.2 37.1z" fill="#FF674B" p-id="2487"></path><path d="M411 930.5l-35.5-616.8h-64.7L370 930.5zM519.6 930.5l11.8-616.8h-64.6l11.8 616.8zM640.1 930.5l47.3-616.8h-64.6l-23.7 616.8z" fill="#F2F2F2" p-id="2488"></path></svg>